<mxfile host="app.diagrams.net" modified="2022-08-03T16:00:19.503Z" agent="5.0 (Windows)" etag="7Jp4eE2YIut8VH_gel6w" version="20.2.2" type="github">
  <diagram id="mEYpcFk4BfZ1w42Qmvzg" name="Seite-1">
    <mxGraphModel dx="2062" dy="1140" grid="1" gridSize="10" guides="1" tooltips="1" connect="1" arrows="1" fold="1" page="1" pageScale="1" pageWidth="827" pageHeight="1169" math="0" shadow="0">
      <root>
        <mxCell id="0" />
        <mxCell id="1" parent="0" />
        <mxCell id="GgRUBpjtTyU08qPV-5bm-1" value="" style="rounded=0;whiteSpace=wrap;html=1;" vertex="1" parent="1">
          <mxGeometry x="50" y="350" width="120" height="60" as="geometry" />
        </mxCell>
      </root>
    </mxGraphModel>
  </diagram>
</mxfile>
